HIERARCHY
ROOT Hips
{
	OFFSET 0.000000 0.000000 0.000000 
	CHANNELS 6 Xposition Yposition Zposition Yrotation Zrotation Xrotation 
	JOINT Lumbar
	{
		OFFSET 0.000000 0.000000 0.000000 
		CHANNELS 3 Zrotation Xrotation Yrotation
		JOINT Neck
		{
			OFFSET 0.000000 0.445665 0.000000 
			CHANNELS 3 Zrotation Xrotation Yrotation
			End Site
			{
				OFFSET 0.000000 0.227535 0.000000 
			}
		}
		JOINT RightShoulder
		{
			OFFSET 0.019635 0.377685 0.194865 
			CHANNELS 3 Zrotation Xrotation Yrotation
			JOINT RightElbow
			{
				OFFSET 0.000000 -0.243375 0.000000 
				CHANNELS 2 Zrotation Yrotation
				JOINT RightWrist
				{
					OFFSET 0.000000 -0.264825 0.000000 
					CHANNELS 2 Zrotation Xrotation
					End Site
					{
						OFFSET 0.006600 -0.176220 0.000990 
					}
				}
			}
		}
		JOINT LeftShoulder
		{
			OFFSET 0.019635 0.377685 -0.194865 
			CHANNELS 3 Zrotation Xrotation Yrotation
			JOINT LeftElbow
			{
				OFFSET 0.000000 -0.243375 0.000000 
				CHANNELS 2 Zrotation Yrotation
				JOINT LeftWrist
				{
					OFFSET 0.000000 -0.264825 0.000000 
					CHANNELS 2 Zrotation Xrotation
					End Site
					{
						OFFSET 0.006600 -0.176220 -0.000990 
					}
				}
			}
		}
	}
	JOINT RightHip
	{
		OFFSET 0.052140 -0.069960 0.075570 
		CHANNELS 3 Zrotation Xrotation Yrotation
		JOINT RightKnee
		{
			OFFSET 0.000000 -0.402270 0.000000 
			CHANNELS 1 Zrotation
			JOINT RightAnkle
			{
				OFFSET 0.000000 -0.404085 0.000000 
				CHANNELS 3 Zrotation Xrotation Yrotation
				End Site
				{
					OFFSET 0.204105 -0.089430 0.008415 
				}
			}
		}
	}
	JOINT LeftHip
	{
		OFFSET 0.052140 -0.069960 -0.075570 
		CHANNELS 3 Zrotation Xrotation Yrotation
		JOINT LeftKnee
		{
			OFFSET 0.000000 -0.402270 0.000000 
			CHANNELS 1 Zrotation
			JOINT LeftAnkle
			{
				OFFSET 0.000000 -0.404085 0.000000 
				CHANNELS 3 Zrotation Xrotation Yrotation
				End Site
				{
					OFFSET 0.204105 -0.089430 -0.008415 
				}
			}
		}
	}
}
MOTION
Frames: 11
Frame Time: 0.02
0.00217 0.03357 0.28417 40.59992 -27.99873 -7.82028 42.69994 4.54151 9.63439 11.46315 -0.16381 -2.09979 90.06296 16.20719 55.63328 59.31021 76.89587 8.33111 -4.88334 121.87785 35.69211 87.10898 5.8039 -83.18258 -11.10384 3.53731 43.972 0.14572 -15.39762 -16.87644 -7.13155 -2.48738 -3.47447 42.76919 5.6246 8.10572 -23.02647 -6.97102 1.30182 2.90209
0.00163 0.03343 0.28419 40.42578 -27.97849 -7.81063 42.76163 4.56197 9.25622 11.41884 -0.15646 -2.09984 88.04993 16.22444 55.63514 59.88742 77.27153 8.56904 -5.09239 121.81125 36.19597 87.1524 5.79648 -83.11824 -11.27401 3.50585 44.02431 0.15764 -15.13353 -16.88504 -7.1371 -2.49489 -3.47936 42.78954 5.56545 7.97892 -23.04941 -6.96187 1.32941 2.91931
0.00118 0.03332 0.28424 40.21526 -27.96471 -7.80169 42.82531 4.57867 8.86114 11.40678 -0.18179 -2.09989 85.61398 16.21498 55.63323 60.56234 77.77745 8.93391 -5.31546 121.75965 36.73459 87.13889 5.79728 -82.96393 -11.4679 3.44585 44.0897 0.18201 -14.82617 -16.8959 -7.14363 -2.50493 -3.4856 42.81511 5.50789 7.83117 -23.07287 -6.95158 1.36118 2.93926
0.00069 0.03319 0.28428 40.01803 -27.94798 -7.79237 42.8872 4.59421 8.4683 11.37845 -0.18656 -2.09993 83.32673 16.17754 55.63169 61.21781 78.22189 9.21513 -5.51121 121.70636 37.26714 87.13729 5.7965 -82.84738 -11.65205 3.3982 44.1492 0.19943 -14.54821 -16.9056 -7.14935 -2.51233 -3.49031 42.83812 5.45092 7.69999 -23.09621 -6.94184 1.39155 2.95791
0.00019 0.03307 0.28431 39.83651 -27.93192 -7.78321 42.95271 4.62196 8.09644 11.36022 -0.22097 -2.09998 81.20457 16.31507 55.64303 61.78125 78.68233 9.59772 -5.79589 121.62479 37.75662 87.14228 5.79464 -82.72137 -11.83634 3.34485 44.20901 0.22166 -14.22963 -16.916 -7.15663 -2.52614 -3.49893 42.86289 5.38768 7.53668 -23.11913 -6.93197 1.41987 2.97683
-0.00026 0.03294 0.28437 39.61218 -27.91595 -7.77399 43.01113 4.62332 7.67707 11.32702 -0.19858 -2.10002 78.64464 16.07477 55.61763 62.55191 79.13784 9.80474 -5.9002 121.60899 38.34604 87.13911 5.79406 -82.60525 -12.02447 3.30064 44.27137 0.23728 -13.98499 -16.92542 -7.16091 -2.52705 -3.49968 42.88502 5.33827 7.43622 -23.14303 -6.92212 1.45347 2.99586
-0.00062 0.03279 0.28449 39.28665 -27.89652 -7.7633 43.05033 4.55307 7.13745 11.24849 -0.02015 -2.10007 74.98831 14.85695 55.56823 63.90159 79.54854 9.46612 -5.4818 121.76187 39.18847 87.14028 5.79301 -82.50383 -12.21437 3.27836 44.33424 0.22907 -13.95832 -16.93163 -7.15631 -2.4929 -3.47855 42.89662 5.32555 7.51522 -23.16951 -6.91242 1.50019 3.01399
-0.00095 0.03263 0.28465 38.91748 -27.87736 -7.7527 43.08221 4.45636 6.54958 11.15263 0.21881 -2.10011 70.90852 13.24822 55.46744 65.44858 79.9484 8.95165 -4.88508 121.98305 40.13324 87.14044 5.79217 -82.42497 -12.40711 3.26924 44.39985 0.21424 -14.00743 -16.93675 -7.14872 -2.4454 -3.44938 42.90569 5.32708 7.65884 -23.19695 -6.90283 1.55211 3.03219
-0.00128 0.03247 0.2848 38.56297 -27.8592 -7.74281 43.11693 4.37147 5.97994 11.06167 0.43659 -2.10015 67.0177 11.78032 55.34034 66.88441 80.35236 8.53947 -4.38344 122.17979 41.04051 87.14027 5.7914 -82.36094 -12.6 3.26192 44.46612 0.20426 -14.01904 -16.94231 -7.14268 -2.4033 -3.42377 42.91691 5.32281 7.77208 -23.22393 -6.89331 1.60195 3.0507
-0.00163 0.03232 0.28493 38.22959 -27.83603 -7.72984 43.15372 4.28711 5.42587 10.98436 0.62668 -2.10019 63.12062 10.46919 55.42387 68.4172 80.76601 8.04184 -3.82271 122.34883 41.91024 87.14049 5.79041 -82.18643 -12.78814 3.22065 44.52432 0.18724 -14.03992 -16.94816 -7.1358 -2.36435 -3.39871 42.92368 5.31542 7.88685 -23.25101 -6.88322 1.65086 3.06795
-0.00195 0.03216 0.2851 37.84162 -27.82389 -7.7232 43.18448 4.19564 4.82736 10.87418 0.88893 -2.10024 59.1489 8.7362 55.05519 69.79027 81.15323 7.6729 -3.34295 122.59194 42.8829 87.14053 5.78975 -82.25003 -12.98597 3.25358 44.60045 0.18278 -14.06273 -16.95316 -7.13005 -2.31532 -3.37043 42.93958 5.31831 8.01654 -23.27815 -6.87437 1.70273 3.08772
